<svg xmlns="http://www.w3.org/2000/svg" viewBox="0 0 256 256" width="256" height="256">
<title>ミナモ（surprise）</title>
<defs><radialGradient id="skin" cx="0.5" cy="0.4" r="0.62"><stop offset="0" stop-color="#f6fdff"/><stop offset="0.75" stop-color="#f6fdff"/><stop offset="1" stop-color="#d2ecf7"/></radialGradient><radialGradient id="blush" cx="0.5" cy="0.5" r="0.5"><stop offset="0" stop-color="#ff9ac0" stop-opacity="0.7"/><stop offset="1" stop-color="#ff9ac0" stop-opacity="0"/></radialGradient><linearGradient id="hair" x1="0" y1="0" x2="0" y2="1"><stop offset="0" stop-color="#8adcf4"/><stop offset="0.5" stop-color="#4fb0dc"/><stop offset="1" stop-color="#2a78aa"/></linearGradient><linearGradient id="hairB" x1="0" y1="0" x2="0" y2="1"><stop offset="0" stop-color="#3d92c4"/><stop offset="1" stop-color="#1a4c7a" stop-opacity="0.25"/></linearGradient><linearGradient id="gown" x1="0" y1="0" x2="0" y2="1"><stop offset="0" stop-color="#f4fdff"/><stop offset="0.6" stop-color="#d4f0fc"/><stop offset="1" stop-color="#a8dcf2" stop-opacity="0.2"/></linearGradient><linearGradient id="iris" x1="0" y1="0" x2="0" y2="1"><stop offset="0" stop-color="#0c2c4a"/><stop offset="0.42" stop-color="#1a7aa8"/><stop offset="0.85" stop-color="#6ad8f0"/><stop offset="1" stop-color="#c8f8ff"/></linearGradient><radialGradient id="aura" cx="0.5" cy="0.5" r="0.5"><stop offset="0" stop-color="#7ae0ff" stop-opacity="0.35"/><stop offset="1" stop-color="#7ae0ff" stop-opacity="0"/></radialGradient><radialGradient id="shell" cx="0.4" cy="0.3" r="0.8"><stop offset="0" stop-color="#fff0f4"/><stop offset="1" stop-color="#ff9ab8"/></radialGradient></defs>
<g transform="scale(.5)">

<circle cx="256" cy="260" r="250" fill="url(#aura)"/>
<path d="M140 220 C110 300 96 380 70 470 C90 490 120 500 140 520 L372 520 C392 500 422 490 442 470 C416 380 402 300 372 220 C360 120 152 120 140 220Z" fill="url(#hairB)" stroke="#14405a" stroke-width="4" stroke-linejoin="round" opacity=".95"/>
<path d="M118 330 C104 390 96 430 80 470 M140 330 C134 400 124 450 112 500 M394 330 C408 390 416 430 432 470 M372 330 C378 400 388 450 400 500" fill="none" stroke="#9ae4fa" stroke-width="4" stroke-linecap="round" opacity=".6"/>
<g transform="matrix(1 0 0 1.1765 0 -97.76)"><path d="M96 520 C104 462 150 428 204 418 Q256 434 308 418 C362 428 408 462 416 520Z" fill="url(#gown)" stroke="#14405a" stroke-width="4" stroke-linejoin="round"/>
<path d="M232 340 L230 420 Q256 432 282 420 L280 340Z" fill="#eef9ff" stroke="#14405a" stroke-width="3.6"/><path d="M232 358 Q256 390 280 358 L280 384 Q256 402 232 384Z" fill="#bfe0ee" opacity=".75"/>
<path d="M196 414 Q216 440 236 432 Q246 446 256 436 Q266 446 276 432 Q296 440 316 414 Q296 452 276 450 Q266 462 256 452 Q246 462 236 450 Q216 452 196 414Z" fill="#fff" stroke="#14405a" stroke-width="3" stroke-linejoin="round"/>
<path d="M256 452 v60" stroke="#8ccbe6" stroke-width="2.5"/><circle cx="256" cy="472" r="4" fill="#bfeaff" stroke="#14405a" stroke-width="2"/><circle cx="256" cy="496" r="4" fill="#bfeaff" stroke="#14405a" stroke-width="2"/>
</g>
<path d="M170 256 C146 248 142 286 158 304 C164 310 172 306 174 298Z" fill="#eef9ff" stroke="#14405a" stroke-width="3.6"/><path d="M162 266 Q154 280 163 292" fill="none" stroke="#bfe0ee" stroke-width="3" stroke-linecap="round"/><path d="M342 256 C366 248 370 286 354 304 C348 310 340 306 338 298Z" fill="#eef9ff" stroke="#14405a" stroke-width="3.6"/><path d="M350 266 Q358 280 349 292" fill="none" stroke="#bfe0ee" stroke-width="3" stroke-linecap="round"/>
<path d="M166 196 C160 262 172 312 204 342 C226 362 286 362 308 342 C340 312 352 262 346 196 C326 144 186 144 166 196Z" fill="url(#skin)" stroke="#14405a" stroke-width="4.5"/>
<clipPath id="fc"><path d="M166 196 C160 262 172 312 204 342 C226 362 286 362 308 342 C340 312 352 262 346 196 C326 144 186 144 166 196Z"/></clipPath><g clip-path="url(#fc)"><path d="M150 240 C138 140 190 92 256 92 C322 92 374 140 362 240 C356 222 350 206 340 194 Q336 214 324 228 Q326 200 314 184 Q300 210 280 224 Q288 200 282 178 Q262 206 236 220 Q244 200 240 178 Q224 204 196 222 Q204 204 202 186 Q184 204 176 226 Q172 208 172 196 Q158 214 150 240Z" transform="translate(4 12)" fill="#a8d8ec" opacity="0.6"/></g>
<ellipse cx="182" cy="318" rx="28" ry="14" fill="url(#blush)" opacity="0.55"/><ellipse cx="330" cy="318" rx="28" ry="14" fill="url(#blush)" opacity="0.55"/>
<path transform="translate(206 222) scale(-1 1)" d="M-22.099999999999998 -8 Q0 -9 26 -8" fill="none" stroke="#2a6a94" stroke-width="4.2" stroke-linecap="round"/><path transform="translate(306 222) scale(1 1)" d="M-22.099999999999998 -8 Q0 -9 26 -8" fill="none" stroke="#2a6a94" stroke-width="4.2" stroke-linecap="round"/><clipPath id="ecL"><path d="M-32 3 C-19.2 -43.125 16 -45 32 -3.75 C22.4 25.5 -16 30 -32 3Z" transform="translate(206 272) scale(-1 1) rotate(2)"/></clipPath><path d="M-32 3 C-19.2 -43.125 16 -45 32 -3.75 C22.4 25.5 -16 30 -32 3Z" transform="translate(206 272) scale(-1 1) rotate(2)" fill="#fff"/><g clip-path="url(#ecL)"><ellipse cx="207.3" cy="275.6" rx="16.1" ry="25.2" fill="url(#iris)" stroke="#14405a" stroke-width="2"/><ellipse cx="207.3" cy="289.5" rx="10" ry="8.1" fill="#c8fbff" opacity=".35"/><ellipse cx="207.3" cy="276.9" rx="5.2" ry="9.1" fill="#08203a"/><path d="M-32 3 C-19.2 -43.125 16 -45 32 -3.75 C22.4 25.5 -16 30 -32 3Z" transform="translate(206 272) scale(-1 1) rotate(2) translate(0 -16.5)" fill="#1a0f24" opacity=".28"/></g><g transform="translate(206 272) scale(-1 1) rotate(2)"><path d="M-34 4 C-19.2 -44.125 16 -46 36 -4.75" fill="none" stroke="#14405a" stroke-width="7" stroke-linecap="round"/><path d="M34 -4.75 l10 -7.5 M29 -20.625 l9 -11.25" stroke="#14405a" stroke-width="3.8500000000000005" stroke-linecap="round"/><path d="M25.6 15 C16 27.6 -9.6 30 -22.4 16.5" fill="none" stroke="#14405a" stroke-width="2.2" stroke-linecap="round" opacity=".75"/></g><ellipse cx="201.2" cy="266" rx="5.2" ry="7.6" fill="#fff"/><circle cx="214.1" cy="286.2" r="2.3" fill="#fff" opacity=".9"/><clipPath id="ecR"><path d="M-32 3 C-19.2 -43.125 16 -45 32 -3.75 C22.4 25.5 -16 30 -32 3Z" transform="translate(306 272) scale(1 1) rotate(2)"/></clipPath><path d="M-32 3 C-19.2 -43.125 16 -45 32 -3.75 C22.4 25.5 -16 30 -32 3Z" transform="translate(306 272) scale(1 1) rotate(2)" fill="#fff"/><g clip-path="url(#ecR)"><ellipse cx="304.7" cy="275.6" rx="16.1" ry="25.2" fill="url(#iris)" stroke="#14405a" stroke-width="2"/><ellipse cx="304.7" cy="289.5" rx="10" ry="8.1" fill="#c8fbff" opacity=".35"/><ellipse cx="304.7" cy="276.9" rx="5.2" ry="9.1" fill="#08203a"/><path d="M-32 3 C-19.2 -43.125 16 -45 32 -3.75 C22.4 25.5 -16 30 -32 3Z" transform="translate(306 272) scale(1 1) rotate(2) translate(0 -16.5)" fill="#1a0f24" opacity=".28"/></g><g transform="translate(306 272) scale(1 1) rotate(2)"><path d="M-34 4 C-19.2 -44.125 16 -46 36 -4.75" fill="none" stroke="#14405a" stroke-width="7" stroke-linecap="round"/><path d="M34 -4.75 l10 -7.5 M29 -20.625 l9 -11.25" stroke="#14405a" stroke-width="3.8500000000000005" stroke-linecap="round"/><path d="M25.6 15 C16 27.6 -9.6 30 -22.4 16.5" fill="none" stroke="#14405a" stroke-width="2.2" stroke-linecap="round" opacity=".75"/></g><ellipse cx="298.6" cy="266" rx="5.2" ry="7.6" fill="#fff"/><circle cx="311.5" cy="286.2" r="2.3" fill="#fff" opacity=".9"/><path d="M255 306 q3 3 6 1" fill="none" stroke="#7ab4cc" stroke-width="2.4" stroke-linecap="round"/><ellipse cx="256" cy="333.1" rx="7.6" ry="9.3" fill="#a83a58" stroke="#14405a" stroke-width="3"/><ellipse cx="256" cy="337.3" rx="4.7" ry="3.4" fill="#ff8a9a"/><path d="M150 150 l-18 -18 M164 136 l-8 -24 M362 150 l18 -18 M348 136 l8 -24" stroke="#7ae0ff" stroke-width="5" stroke-linecap="round"/>
<path d="M150 240 C138 140 190 92 256 92 C322 92 374 140 362 240 C356 222 350 206 340 194 Q336 214 324 228 Q326 200 314 184 Q300 210 280 224 Q288 200 282 178 Q262 206 236 220 Q244 200 240 178 Q224 204 196 222 Q204 204 202 186 Q184 204 176 226 Q172 208 172 196 Q158 214 150 240Z" fill="url(#hair)" stroke="#14405a" stroke-width="4.5" stroke-linejoin="round"/>
<path d="M176 150 Q216 118 256 116 Q300 116 336 150 Q300 134 256 132 Q214 134 176 150Z" fill="#c8f4ff" opacity=".7"/>
<path d="M200 140 Q218 124 238 120 Q226 130 218 142Z M276 120 Q300 124 318 140 Q302 134 290 134Z" fill="#fff" opacity=".9"/>
<path d="M150 240 C138 300 140 360 120 410 C150 380 166 320 168 252Z" fill="url(#hair)" stroke="#14405a" stroke-width="3.5" stroke-linejoin="round"/>
<path d="M362 240 C374 300 372 360 392 410 C362 380 346 320 344 252Z" fill="url(#hair)" stroke="#14405a" stroke-width="3.5" stroke-linejoin="round"/>
<g transform="translate(344 170) rotate(24)"><path d="M0 -22 C-22 -22 -26 6 -16 18 L16 18 C26 6 22 -22 0 -22Z" fill="url(#shell)" stroke="#b8406f" stroke-width="2.6"/><path d="M0 -20 v36 M-9 -16 l-5 32 M9 -16 l5 32" stroke="#e070a0" stroke-width="2" fill="none"/><rect x="-10" y="16" width="20" height="7" rx="3" fill="#ffc6d8" stroke="#b8406f" stroke-width="2"/></g>
<g fill="none" stroke="#9ae8ff" stroke-width="2.5" opacity=".85"><circle cx="96" cy="200" r="10"/><circle cx="76" cy="250" r="6"/><circle cx="420" cy="230" r="12"/><circle cx="440" cy="180" r="6"/><circle cx="110" cy="130" r="5"/><circle cx="406" cy="120" r="7"/></g>
<g fill="#fff" opacity=".9"><circle cx="93" cy="196" r="3"/><circle cx="416" cy="225" r="3.5"/></g>
</g>
</svg>
